<svg width="35" height="29" viewBox="0 0 35 29" fill="none" xmlns="http://www.w3.org/2000/svg">
<path d="M26.8375 20.8604L22.325 16.3875L24.5813 14.1708L26.8375 16.3875L32.4188 10.8063L34.675 13.0229L26.8375 20.8604ZM15.8333 28.5L10.8063 23.9875C8.90625 22.2722 7.27674 20.7417 5.91771 19.3958C4.55868 18.05 3.43715 16.7833 2.55313 15.5958C1.6691 14.4083 1.02257 13.2604 0.613542 12.1521C0.204514 11.0438 0 9.88264 0 8.66875C0 6.18819 0.83125 4.12326 2.49375 2.47396C4.15625 0.824653 6.22778 0 8.70833 0C10.0806 0 11.3868 0.290278 12.6271 0.870833C13.8674 1.45139 14.9361 2.26944 15.8333 3.325C16.7306 2.26944 17.7993 1.45139 19.0396 0.870833C20.2799 0.290278 21.5861 0 22.9583 0C25.0958 0 26.8903 0.600347 28.3417 1.80104C29.7931 3.00174 30.7826 4.5125 31.3104 6.33333H27.9458C27.4708 5.27778 26.7715 4.48611 25.8479 3.95833C24.9243 3.43056 23.9611 3.16667 22.9583 3.16667C21.6125 3.16667 20.4514 3.52951 19.475 4.25521C18.4986 4.9809 17.5882 5.9375 16.7437 7.125H14.9229C14.1049 5.9375 13.1747 4.9809 12.1323 4.25521C11.0899 3.52951 9.94861 3.16667 8.70833 3.16667C7.20417 3.16667 5.90451 3.68785 4.80938 4.73021C3.71424 5.77257 3.16667 7.08542 3.16667 8.66875C3.16667 9.53958 3.35139 10.4236 3.72083 11.3208C4.09028 12.2181 4.75 13.2538 5.7 14.4281C6.65 15.6024 7.94306 16.9747 9.57917 18.5448C11.2153 20.1149 13.3 22.0083 15.8333 24.225C16.5194 23.6181 17.3243 22.9188 18.2479 22.1271C19.1715 21.3354 19.9104 20.6757 20.4646 20.1479L22.7208 22.4042C22.1403 22.9319 21.4014 23.5851 20.5042 24.3635C19.6069 25.142 18.8153 25.8347 18.1292 26.4417L15.8333 28.5Z" fill="white"/>
</svg>
